# xmcd CD database file
#
# Track frame offsets:
#	150
#	40377
#	64158
#	99428
#	130025
#	162664
#	197482
#
# Disc length: 2949 seconds
#
# Revision: 1
# Processed by: cddbd v1.5.2PL0 Copyright (c) Steve Scherf et al.
# Submitted via: CDex 1.51
#
DISCID=5c0b8307
DTITLE=Bradfield - Buddha Spirit II
DYEAR=2007
DGENRE=New Age
TTITLE0=Amitayus
TTITLE1=Chenrezig
TTITLE2=Padmasambhava
TTITLE3=Tara (White and Green)
TTITLE4=Vajrasattva
TTITLE5=Heart Of Wisdom
TTITLE6=Manjushri
EXTD=YEAR: 2007
EXTT0=
EXTT1=
EXTT2=
EXTT3=
EXTT4=
EXTT5=
EXTT6=
PLAYORDER=
